<?xml version="1.0" standalone="no"?><!-- Generator: Gravit.io --><svg xmlns="http://www.w3.org/2000/svg" xmlns:xlink="http://www.w3.org/1999/xlink" style="isolation:isolate" viewBox="221 352 29.772 33.267" width="29.772" height="33.267"><g id="Cake"><path d=" M 250.063 369.995 C 250.063 368.223 248.644 366.791 246.889 366.791 L 224.871 366.791 C 223.116 366.791 221.698 368.223 221.698 369.995 L 221.698 372.05 L 221.709 372.05 C 221.744 373.094 221.791 373.893 222.36 374.292 C 222.93 374.691 223.79 374.444 224.22 373.904 C 224.615 373.4 224.65 372.625 225.173 372.237 C 225.848 371.744 226.847 372.308 227.208 373.071 C 227.568 373.834 227.557 374.714 227.801 375.524 C 228.045 376.334 228.731 377.144 229.556 377.027 C 230.393 376.898 230.788 375.935 231.102 375.137 C 231.416 374.339 232.032 373.423 232.869 373.576 C 233.741 373.74 233.962 374.855 234.287 375.677 C 234.625 376.499 235.264 377.215 236.089 377.532 C 236.915 377.849 237.914 377.719 238.577 377.132 C 239.344 376.452 239.53 375.348 239.914 374.397 C 240.298 373.447 241.193 372.484 242.169 372.742 C 242.797 372.907 243.204 373.529 243.448 374.139 C 243.681 374.75 243.82 375.419 244.18 375.959 C 244.541 376.499 245.25 376.898 245.843 376.639 C 246.308 376.44 246.54 375.923 246.808 375.489 C 247.075 375.055 247.517 374.609 248.017 374.726 C 248.493 374.832 248.179 375.759 248.493 376.123 L 248.877 376.334 C 249.435 376.346 250.074 375.712 250.074 375.113 L 250.063 369.995 L 250.063 369.995 Z  M 226.22 369.855 L 224.708 368.833 L 225.092 368.246 L 226.603 369.268 L 226.22 369.855 Z  M 229.161 373.576 L 228.37 371.921 L 228.998 371.615 L 229.789 373.27 L 229.161 373.576 Z  M 230.614 370.934 L 230.033 370.547 L 231.044 369.021 L 231.625 369.408 L 230.614 370.934 Z  M 233.915 371.005 L 233.881 369.162 L 234.578 369.15 L 234.613 370.993 L 233.915 371.005 Z  M 236.647 375.301 L 235.799 373.67 L 236.415 373.341 L 237.263 374.973 L 236.647 375.301 Z  M 239.031 371.287 L 237.519 370.265 L 237.903 369.678 L 239.414 370.7 L 239.031 371.287 Z  M 241.472 370.524 L 240.891 370.136 L 241.902 368.61 L 242.483 368.998 L 241.472 370.524 Z  M 245.901 373.846 L 245.052 372.214 L 245.668 371.885 L 246.517 373.517 L 245.901 373.846 Z  M 247.11 369.855 L 245.599 368.833 L 245.982 368.246 L 247.494 369.268 L 247.11 369.855 Z " fill="rgb(255,120,67)"/><path d=" M 227.324 358.128 C 227.743 358.491 228.208 358.515 228.37 358.515 L 228.405 358.515 C 228.591 358.515 229.021 358.468 229.417 358.128 C 229.858 357.752 230.102 357.142 230.137 356.332 C 230.242 354.395 228.87 352.646 228.812 352.575 L 228.37 352.012 L 227.917 352.587 C 227.859 352.657 226.487 354.406 226.592 356.343 C 226.638 357.142 226.882 357.752 227.324 358.128 Z  M 228.37 354.019 C 228.684 354.583 229.033 355.416 228.986 356.273 C 228.94 357.048 228.673 357.329 228.428 357.341 L 228.417 357.329 L 228.324 357.341 C 228.08 357.341 227.801 357.059 227.766 356.273 C 227.708 355.428 228.068 354.583 228.37 354.019 L 228.37 354.019 Z  M 234.834 358.128 C 235.229 358.468 235.659 358.515 235.845 358.515 L 235.88 358.515 C 236.043 358.515 236.508 358.491 236.926 358.128 C 237.368 357.752 237.612 357.142 237.647 356.332 C 237.752 354.395 236.38 352.646 236.322 352.575 L 235.868 352 L 235.415 352.575 C 235.357 352.646 233.985 354.395 234.09 356.332 C 234.148 357.142 234.392 357.752 234.834 358.128 L 234.834 358.128 Z  M 235.88 354.019 C 236.194 354.583 236.543 355.416 236.496 356.273 C 236.45 357.048 236.182 357.329 235.938 357.341 L 235.927 357.329 L 235.834 357.341 C 235.589 357.341 235.31 357.059 235.276 356.273 C 235.217 355.428 235.566 354.583 235.88 354.019 L 235.88 354.019 Z  M 242.332 358.128 C 242.751 358.491 243.216 358.515 243.378 358.515 L 243.413 358.515 C 243.599 358.515 244.029 358.468 244.425 358.128 C 244.866 357.752 245.11 357.142 245.145 356.332 C 245.25 354.395 243.878 352.646 243.82 352.575 L 243.367 352 L 242.913 352.575 C 242.855 352.646 241.483 354.395 241.588 356.332 C 241.658 357.142 241.902 357.752 242.332 358.128 L 242.332 358.128 Z  M 243.39 354.019 C 243.704 354.583 244.053 355.416 244.006 356.273 C 243.96 357.048 243.692 357.329 243.448 357.341 L 243.436 357.329 L 243.343 357.341 C 243.099 357.341 242.82 357.059 242.785 356.273 C 242.727 355.428 243.076 354.583 243.39 354.019 L 243.39 354.019 Z  M 250.76 369.995 C 250.76 367.835 249.028 366.086 246.889 366.086 L 245.169 366.086 L 245.169 358.961 L 241.611 358.961 L 241.611 366.086 L 237.659 366.086 L 237.659 358.961 L 234.101 358.961 L 234.101 366.086 L 230.149 366.086 L 230.149 358.961 L 226.592 358.961 L 226.592 366.086 L 224.871 366.086 C 222.732 366.086 221 367.835 221 369.995 L 221 372.179 C 221.035 373.165 221.163 374.35 221.93 374.961 L 221.93 382.849 C 221.93 384.187 222.953 385.267 224.22 385.267 L 247.552 385.267 C 248.807 385.267 249.842 384.187 249.842 382.849 L 249.842 376.639 C 249.842 376.569 249.877 376.51 249.923 376.487 C 250.493 376.182 250.772 375.712 250.772 375.102 L 250.76 369.995 L 250.76 369.995 Z  M 242.774 360.123 L 244.006 360.123 L 244.006 366.075 L 242.774 366.075 L 242.774 360.123 L 242.774 360.123 Z  M 235.264 360.123 L 236.496 360.123 L 236.496 366.075 L 235.264 366.075 L 235.264 360.123 L 235.264 360.123 Z  M 227.754 360.123 L 228.986 360.123 L 228.986 366.075 L 227.754 366.075 L 227.754 360.123 L 227.754 360.123 Z  M 223.325 379.797 L 248.435 379.797 L 248.435 380.959 L 223.325 380.959 L 223.325 379.797 Z  M 247.552 383.859 L 224.22 383.859 C 223.732 383.859 223.325 383.401 223.325 382.849 L 223.325 381.652 L 248.435 381.652 L 248.435 382.849 C 248.435 383.401 248.04 383.859 247.552 383.859 Z  M 249.365 375.16 C 249.365 375.16 249.342 375.196 249.249 375.243 C 248.749 375.513 248.435 376.053 248.435 376.639 L 248.435 379.093 L 223.325 379.093 L 223.325 374.855 C 223.325 374.468 223.127 374.104 222.814 373.881 C 222.674 373.787 222.442 373.435 222.407 372.155 L 222.407 370.007 C 222.407 368.634 223.523 367.507 224.883 367.507 L 246.889 367.507 C 248.249 367.507 249.365 368.634 249.365 370.007 L 249.377 375.113 C 249.365 375.149 249.365 375.16 249.365 375.16 L 249.365 375.16 Z " fill="rgb(71,70,71)"/></g></svg>