<?xml version="1.0" standalone="no"?><!-- Generator: Gravit.io --><svg xmlns="http://www.w3.org/2000/svg" xmlns:xlink="http://www.w3.org/1999/xlink" style="isolation:isolate" viewBox="881.5 25.5 157 157" width="157" height="157"><g id="Logo"><path d=" M 1022.913 57.154 C 1032.718 70.207 1038.5 86.434 1038.5 104 C 1038.5 147.325 1003.325 182.5 960 182.5 C 916.675 182.5 881.5 147.325 881.5 104 C 881.5 60.675 916.675 25.5 960 25.5 C 982.58 25.5 1002.947 35.054 1017.26 50.351 L 1018.561 51.745 L 1018.561 51.745 C 1020.102 53.471 1021.568 55.265 1022.913 57.154" fill="rgb(255,120,67)"/><g id="Group"><path d=" M 946.161 110.226 C 941.125 104.237 938.26 96.811 938.26 88.814 C 938.26 80.214 941.756 72.078 947.814 65.802 C 953.951 59.716 962.239 56.293 970.882 56.273 C 979.504 56.273 987.892 59.759 993.95 65.802 C 1000.101 71.875 1003.544 80.171 1003.504 88.814 C 1003.504 97.647 1000.242 105.781 993.95 112.056 C 987.813 118.143 979.526 121.568 970.882 121.588 C 963.033 121.569 955.45 118.745 949.501 113.625 L 914.26 148.782 C 913.834 149.227 913.245 149.479 912.629 149.479 C 912.013 149.479 911.424 149.227 910.998 148.782 C 910.066 147.85 910.066 146.455 910.998 145.526 L 946.161 110.226 L 946.161 110.226 Z  M 942.921 88.814 C 942.921 81.606 945.95 74.402 951.076 69.055 C 956.435 63.944 963.426 60.921 970.882 60.921 C 978.339 60.921 985.562 63.944 990.688 69.058 C 995.917 74.302 998.85 81.408 998.844 88.814 C 998.844 96.252 996.047 103.457 990.688 108.571 C 985.562 113.914 978.339 116.937 970.882 116.937 C 963.426 116.937 956.435 113.917 951.076 108.571 C 945.863 103.314 942.932 96.214 942.921 88.811 L 942.921 88.814 Z " fill-rule="evenodd" fill="rgb(255,255,255)"/><rect x="899" y="47.077" width="111.846" height="111.846" transform="matrix(1,0,0,1,0,0)" fill="none"/></g></g></svg>