<?xml version="1.0" standalone="no"?><!-- Generator: Gravit.io --><svg xmlns="http://www.w3.org/2000/svg" xmlns:xlink="http://www.w3.org/1999/xlink" style="isolation:isolate" viewBox="1374.537 616.228 65.449 65.449" width="65.449" height="65.449"><path d=" M 1403.176 651.748 C 1401.261 649.47 1400.171 646.646 1400.171 643.605 C 1400.171 640.334 1401.501 637.239 1403.805 634.852 C 1406.139 632.538 1409.291 631.236 1412.578 631.228 C 1415.857 631.228 1419.048 632.554 1421.352 634.852 C 1423.691 637.162 1425.001 640.317 1424.985 643.605 C 1424.985 646.964 1423.745 650.058 1421.352 652.444 C 1419.018 654.76 1415.866 656.062 1412.578 656.07 C 1409.593 656.062 1406.709 654.988 1404.446 653.041 L 1391.043 666.412 C 1390.881 666.582 1390.657 666.677 1390.423 666.677 C 1390.189 666.677 1389.964 666.582 1389.802 666.412 C 1389.448 666.058 1389.448 665.527 1389.802 665.174 L 1403.176 651.748 L 1403.176 651.748 Z  M 1401.944 643.605 C 1401.944 640.863 1403.096 638.123 1405.045 636.09 C 1407.084 634.146 1409.742 632.996 1412.578 632.996 C 1415.414 632.996 1418.161 634.146 1420.111 636.091 C 1422.1 638.085 1423.215 640.788 1423.213 643.605 C 1423.213 646.434 1422.149 649.174 1420.111 651.119 C 1418.161 653.151 1415.414 654.301 1412.578 654.301 C 1409.742 654.301 1407.084 653.152 1405.045 651.119 C 1403.063 649.12 1401.948 646.419 1401.944 643.604 L 1401.944 643.605 Z " fill-rule="evenodd" fill="rgb(227,227,227)"/></svg>